# File produced by Open Asset Import Library (http://www.assimp.sf.net)
# (assimp v4.1.0)

mtllib 5tnoen1almni.mtl

# 144 vertex positions
v  3 -2 0
v  3 -2 1
v  6 -2 1
v  7 -2 1
v  7 -2 0.875
v  7 -2 0
v  2 0 1
v  2 0 0
v  7 0 0
v  7 0 1
v  6 0 1
v  8 -2 0.875
v  8 -2 0
v  8 0 0
v  8 0 1
v  8 -2 1
v  8 0 2
v  7 0 2
v  8 -2.125 1
v  7 -2.125 1
v  8 -2.25 1.25
v  8 -2.125 1.25
v  7 -2.125 1.25
v  7 -2.25 1.25
v  8 -2.375 1.5
v  8 -2.25 1.5
v  7 -2.25 1.5
v  7 -2.375 1.5
v  8 -2.5 1.75
v  8 -2.375 1.75
v  7 -2.375 1.75
v  7 -2.5 1.75
v  8 -2.625 2
v  8 -2.5 2
v  7 -2.5 2
v  7 -2.625 2
v  8 -2.75 2.25
v  8 -2.625 2.25
v  7 -2.625 2.25
v  7 -2.75 2.25
v  8 -2.875 2.5
v  8 -2.75 2.5
v  7 -2.75 2.5
v  7 -2.875 2.5
v  8 -3 2.75
v  8 -2.875 2.75
v  7 -2.875 2.75
v  7 -3 2.75
v  8 -3.125 3
v  8 -3 3
v  7 -3 3
v  7 -3.125 3
v  8 -3.25 3.25
v  8 -3.125 3.25
v  7 -3.125 3.25
v  7 -3.25 3.25
v  8 -3.375 3.5
v  8 -3.25 3.5
v  7 -3.25 3.5
v  7 -3.375 3.5
v  8 -3.5 3.75
v  8 -3.375 3.75
v  7 -3.375 3.75
v  7 -3.5 3.75
v  7 -3.625 4.25
v  8 -3.625 4.25
v  8 -3.625 4
v  7 -3.625 4
v  8 -3.75 4.25
v  7 -3.75 4.25
v  7 -3.5 4
v  8 -3.5 4
v  7 -3.75 4.5
v  8 -3.75 4.5
v  8 -3.875 4.5
v  7 -3.875 4.5
v  7 -3.875 4.75
v  8 -3.875 4.75
v  8 -4 4.75
v  7 -4 4.75
v  7 -4 5
v  8 -4 5
v  8 -2 6
v  7 -2 6
v  7 -4 6
v  8 -4 6
v  0 -2 -1
v  -3 -2 -1
v  -3 -2 0
v  -3 -2 1
v  -3 -2 2
v  0 -2 2
v  0 -2 1
v  0 -2 0
v  -3 0 2
v  -3 0 1
v  -3 0 0
v  -3 0 -1
v  0 0 -1
v  0 0 0
v  0 0 1
v  0 0 2
v  1 -2 1
v  1 -2 0
v  1 0 0
v  1 0 1
v  7 -2 1.25
v  7 -2 1.5
v  7 -2 1.75
v  7 -2 2
v  7 -2 2.25
v  7 -2 2.5
v  7 -2 2.75
v  7 -2 3
v  7 -2 3.25
v  7 -2 3.5
v  7 -2 3.75
v  7 -2 4
v  7 -3 4
v  7 -1 2
v  7 -1 1
v  8 -2 1.25
v  8 -2 1.5
v  8 -2 1.75
v  8 -2 2
v  8 -2 2.25
v  8 -2 2.5
v  8 -2 2.75
v  8 -2 3
v  8 -2 3.25
v  8 -2 3.5
v  8 -2 3.75
v  8 -3 4
v  8 -2 4
v  8 -3.875 5
v  8 -3.75 5
v  8 -3.625 5
v  8 -3 5
v  8 -3 6
v  7 -3.875 5
v  7 -3.75 5
v  7 -3.625 5
v  7 -3 5
v  7 -3 6

# 151 UV coordinates
vt 1.5 1 0
vt 1.5 0.5 0
vt 3 0.5 0
vt 3.5 0.5 0
vt 3.5 0.5625 0
vt 3.5 1 0
vt 1 0.5 0
vt 1 1 0
vt 4 0.5625 0
vt 4 1 0
vt 4 0.5 0
vt 4 0 0
vt 3.5 0 0
vt 4 2.0625 0
vt 4 2 0
vt 3.5 2 0
vt 3.5 2.0625 0
vt 4 2.125 0
vt 3.5 2.125 0
vt 3.5 0.375 0
vt 4 0.375 0
vt 4 2.1875 0
vt 3.5 2.1875 0
vt 3.5 0.25 0
vt 4 0.25 0
vt 4 2.25 0
vt 3.5 2.25 0
vt 3.5 0.125 0
vt 4 0.125 0
vt 4 2.3125 0
vt 3.5 2.3125 0
vt 4 2.375 0
vt 3.5 2.375 0
vt 3.5 -0.125 0
vt 4 -0.125 0
vt 4 2.4375 0
vt 3.5 2.4375 0
vt 3.5 -0.25 0
vt 4 -0.25 0
vt 4 2.5 0
vt 3.5 2.5 0
vt 3.5 -0.375 0
vt 4 -0.375 0
vt 4 2.5625 0
vt 3.5 2.5625 0
vt 3.5 -0.5 0
vt 4 -0.5 0
vt 4 2.625 0
vt 3.5 2.625 0
vt 3.5 -0.625 0
vt 4 -0.625 0
vt 4 2.6875 0
vt 3.5 2.6875 0
vt 3.5 -0.75 0
vt 4 -0.75 0
vt 4 2.75 0
vt 3.5 2.75 0
vt 3.5 -0.875 0
vt 4 -0.875 0
vt 3.5 -1.125 0
vt 4 -1.125 0
vt 4 -1 0
vt 3.5 -1 0
vt 4 2.875 0
vt 4 2.8125 0
vt 3.5 2.8125 0
vt 3.5 2.875 0
vt 3.5 -1.25 0
vt 4 -1.25 0
vt 4 2.9375 0
vt 3.5 2.9375 0
vt 3.5 -1.375 0
vt 4 -1.375 0
vt 4 3 0
vt 3.5 3 0
vt 3.5 -1.5 0
vt 4 -1.5 0
vt 4 -2 0
vt 3.5 -2 0
vt 0 1.5 0
vt -1.5 1.5 0
vt -1.5 1 0
vt -1.5 0.5 0
vt -1.5 0 0
vt -0 0 0
vt 0 0.5 0
vt 0 1 0
vt 0.5 0.5 0
vt 0.5 1 0
vt 0.5 2 0
vt 3 1 0
vt 3 2 0
vt 1.5 2 0
vt 0.5 2.0625 0
vt 0.625 2 0
vt 0.625 2.0625 0
vt 0.75 2.125 0
vt 0.625 2.125 0
vt 0.75 2 0
vt 0.875 2.1875 0
vt 0.75 2.1875 0
vt 0.875 2 0
vt 1 2.25 0
vt 0.875 2.25 0
vt 1 2 0
vt 1.125 2.3125 0
vt 1 2.3125 0
vt 1.125 2 0
vt 1.25 2.375 0
vt 1.125 2.375 0
vt 1.25 2 0
vt 1.375 2.4375 0
vt 1.25 2.4375 0
vt 1.375 2 0
vt 1.5 2.5 0
vt 1.375 2.5 0
vt 1.625 2 0
vt 1.625 2.5625 0
vt 1.5 2.5625 0
vt 1.75 2 0
vt 1.75 2.625 0
vt 1.625 2.625 0
vt 1.875 2 0
vt 1.875 2.6875 0
vt 1.75 2.6875 0
vt 2 2.75 0
vt 1.875 2.75 0
vt 2 2 0
vt 2 2.5 0
vt 1 1.5 0
vt 0.5 1.5 0
vt 3.5 1.5 0
vt 2.5 2.9375 0
vt 2.375 2.9375 0
vt 2.375 3 0
vt 2.5 3 0
vt 2.25 2.875 0
vt 2.25 2.9375 0
vt 2.5 2.875 0
vt 2.125 2.875 0
vt 2.5 2.8125 0
vt 2.125 2.8125 0
vt 2 2.8125 0
vt 2.5 2.5 0
vt 3 2.5 0
vt 3 3 0
vt 0 2 0
vt 0.4375 2 0
vt -1.5 2 0
vt -0.5 1 0
vt -0.5 2 0

# 8 vertex normals
vn 0 1 0
vn 0 -1 0
vn 0 0 1
vn 0 -0.8944270014762878 -0.4472140073776245
vn 0 0 -1
vn 1 0 0
vn 9.999999974752427e-07 0 -1
vn -1 0 0

# Mesh '$dummy_node' with 44 faces
g $dummy_node
usemtl mat_1
f  1/1/1 2/2/1 3/3/1 4/4/1 5/5/1 6/6/1
f  7/7/2 8/8/2 9/6/2 10/4/2 11/3/2
f  6/6/1 5/5/1 12/9/1 13/10/1
f  9/6/2 14/10/2 15/11/2 10/4/2
f  5/5/1 4/4/1 16/11/1 12/9/1
f  15/11/2 17/12/2 18/13/2 10/4/2
f  19/14/3 16/15/3 4/16/3 20/17/3
f  21/18/3 22/14/3 23/17/3 24/19/3
f  20/4/1 23/20/1 22/21/1 19/11/1
f  25/22/3 26/18/3 27/19/3 28/23/3
f  24/20/1 27/24/1 26/25/1 21/21/1
f  29/26/3 30/22/3 31/23/3 32/27/3
f  28/24/1 31/28/1 30/29/1 25/25/1
f  33/30/3 34/26/3 35/27/3 36/31/3
f  32/28/1 35/13/1 34/12/1 29/29/1
f  37/32/3 38/30/3 39/31/3 40/33/3
f  36/13/1 39/34/1 38/35/1 33/12/1
f  41/36/3 42/32/3 43/33/3 44/37/3
f  40/34/1 43/38/1 42/39/1 37/35/1
f  45/40/3 46/36/3 47/37/3 48/41/3
f  44/38/1 47/42/1 46/43/1 41/39/1
f  49/44/3 50/40/3 51/41/3 52/45/3
f  48/42/1 51/46/1 50/47/1 45/43/1
f  53/48/3 54/44/3 55/45/3 56/49/3
f  52/46/1 55/50/1 54/51/1 49/47/1
f  57/52/3 58/48/3 59/49/3 60/53/3
f  56/50/1 59/54/1 58/55/1 53/51/1
f  61/56/3 62/52/3 63/53/3 64/57/3
f  60/54/1 63/58/1 62/59/1 57/55/1
f  65/60/1 66/61/1 67/62/1 68/63/1
f  69/64/3 66/65/3 65/66/3 70/67/3
f  71/63/1 72/62/1 61/59/1 64/58/1
f  67/65/3 72/56/3 71/57/3 68/66/3
f  73/68/1 74/69/1 69/61/1 70/60/1
f  75/70/3 74/64/3 73/67/3 76/71/3
f  77/72/1 78/73/1 75/69/1 76/68/1
f  79/74/3 78/70/3 77/71/3 80/75/3
f  81/76/1 82/77/1 79/73/1 80/72/1
f  18/13/4 17/12/4 83/78/4 84/79/4
f  81/76/1 85/79/1 86/78/1 82/77/1
f  87/80/1 87/80/1 88/81/1 88/81/1 89/82/1 90/83/1 91/84/1 91/84/1 91/84/1 92/85/1 92/85/1 92/85/1 93/86/1 94/87/1
f  95/84/2 96/83/2 96/83/2 97/82/2 97/82/2 98/81/2 99/80/2 100/87/2 101/86/2 102/85/2
f  94/87/1 93/86/1 93/86/1 103/88/1 103/88/1 2/2/1 1/1/1 104/89/1
f  100/87/2 105/89/2 105/89/2 8/8/2 7/7/2 106/88/2 106/88/2 101/86/2

# Mesh '$dummy_node' with 48 faces
g $dummy_node
usemtl mat_2
f  103/90/5 106/89/5 7/8/5 7/8/5 11/91/5 3/92/5 2/93/5 2/93/5
f  104/90/3 1/93/3 6/16/3 9/6/3 8/8/3 105/89/3
f  20/94/6 4/90/6 107/95/6 23/96/6
f  27/97/6 24/98/6 23/96/6 107/95/6 108/99/6
f  31/100/6 28/101/6 27/97/6 108/99/6 109/102/6
f  35/103/6 32/104/6 31/100/6 109/102/6 110/105/6
f  39/106/6 36/107/6 35/103/6 110/105/6 111/108/6
f  43/109/6 40/110/6 39/106/6 111/108/6 112/111/6
f  47/112/6 44/113/6 43/109/6 112/111/6 113/114/6
f  51/115/6 48/116/6 47/112/6 113/114/6 114/93/6
f  115/117/6 55/118/6 52/119/6 51/115/6 114/93/6
f  116/120/6 59/121/6 56/122/6 55/118/6 115/117/6
f  117/123/6 63/124/6 60/125/6 59/121/6 116/120/6
f  71/126/6 64/127/6 63/124/6 117/123/6 118/128/6 119/129/6
f  120/130/6 121/131/6 10/89/6 18/8/6
f  120/130/6 110/105/6 109/102/6 108/99/6 107/95/6 4/90/6 121/131/6
f  4/16/7 3/92/7 11/91/7 10/6/7 121/132/7
f  22/96/8 122/95/8 16/90/8 19/94/8
f  122/95/8 22/96/8 21/98/8 26/97/8 123/99/8
f  123/99/8 26/97/8 25/101/8 30/100/8 124/102/8
f  124/102/8 30/100/8 29/104/8 34/103/8 125/105/8
f  125/105/8 34/103/8 33/107/8 38/106/8 126/108/8
f  126/108/8 38/106/8 37/110/8 42/109/8 127/111/8
f  127/111/8 42/109/8 41/113/8 46/112/8 128/114/8
f  128/114/8 46/112/8 45/116/8 50/115/8 129/93/8
f  129/93/8 50/115/8 49/119/8 54/118/8 130/117/8
f  130/117/8 54/118/8 53/122/8 58/121/8 131/120/8
f  131/120/8 58/121/8 57/125/8 62/124/8 132/123/8
f  132/123/8 62/124/8 61/127/8 72/126/8 133/129/8 134/128/8
f  135/133/8 78/134/8 79/135/8 82/136/8
f  74/137/8 75/138/8 78/134/8 135/133/8 136/139/8
f  69/140/8 74/137/8 136/139/8 137/141/8 66/142/8
f  67/143/8 66/142/8 137/141/8 138/144/8 133/129/8 72/126/8
f  139/145/8 138/144/8 137/141/8 136/139/8 135/133/8 82/136/8 86/146/8
f  134/128/8 133/129/8 138/144/8 139/145/8 83/92/8
f  77/134/6 140/133/6 81/136/6 80/135/6
f  140/133/6 77/134/6 76/138/6 73/137/6 141/139/6
f  141/139/6 73/137/6 70/140/6 65/142/6 142/141/6
f  142/141/6 65/142/6 68/143/6 71/126/6 119/129/6 143/144/6
f  81/136/6 140/133/6 141/139/6 142/141/6 143/144/6 144/145/6 85/146/6
f  144/145/6 143/144/6 119/129/6 118/128/6 84/92/6
f  110/105/6 120/130/6 18/8/6 84/92/6 118/128/6 117/123/6 116/120/6 115/117/6 114/93/6 113/114/6 112/111/6 111/108/6
f  13/15/3 14/10/3 9/6/3 6/16/3
f  17/8/8 125/105/8 126/108/8 127/111/8 128/114/8 129/93/8 130/117/8 131/120/8 132/123/8 134/128/8 83/92/8
f  15/89/8 16/90/8 122/95/8 123/99/8 124/102/8 125/105/8 17/8/8
f  13/147/8 12/148/8 16/90/8 15/89/8 14/87/8
f  94/147/3 104/90/3 105/89/3 100/87/3
f  93/147/5 101/87/5 106/89/5 103/90/5

# Mesh '$dummy_node' with 6 faces
g $dummy_node
usemtl mat_3
f  92/105/8 102/8/8 101/89/8 93/90/8
f  91/149/5 95/82/5 102/87/5 92/147/5 92/147/5 92/147/5
f  94/147/8 100/87/8 99/150/8 87/151/8
f  88/149/3 88/149/3 87/147/3 99/87/3 98/82/3
f  90/90/6 96/89/6 95/8/6 91/105/6 91/105/6
f  98/150/6 97/87/6 89/147/6 88/151/6

