# File produced by Open Asset Import Library (http://www.assimp.sf.net)
# (assimp v4.1.0)

mtllib 3tguu878u1al.mtl

# 175 vertex positions
v  7 -2 0
v  5 -2 0
v  5 -2 1
v  6 -2 1
v  7 -2 1
v  7 -2 0.875
v  4 -2 1
v  4 -2 0
v  0 -2 0
v  0 -2 1
v  1 -2 1
v  3 -2 1
v  5 0 1
v  5 0 0
v  7 0 0
v  7 0 1
v  6 0 1
v  0 0 1
v  0 0 0
v  4 0 0
v  4 0 1
v  3 0 1
v  1 0 1
v  8 -2 0.875
v  8 -2 0
v  8 0 0
v  8 0 1
v  8 -2 1
v  8 0 2
v  7 0 2
v  8 -2.125 1
v  7 -2.125 1
v  8 -2.25 1.25
v  8 -2.125 1.25
v  7 -2.125 1.25
v  7 -2.25 1.25
v  8 -2.375 1.5
v  8 -2.25 1.5
v  7 -2.25 1.5
v  7 -2.375 1.5
v  8 -2.5 1.75
v  8 -2.375 1.75
v  7 -2.375 1.75
v  7 -2.5 1.75
v  8 -2.625 2
v  8 -2.5 2
v  7 -2.5 2
v  7 -2.625 2
v  8 -2.75 2.25
v  8 -2.625 2.25
v  7 -2.625 2.25
v  7 -2.75 2.25
v  8 -2.875 2.5
v  8 -2.75 2.5
v  7 -2.75 2.5
v  7 -2.875 2.5
v  8 -3 2.75
v  8 -2.875 2.75
v  7 -2.875 2.75
v  7 -3 2.75
v  8 -3.125 3
v  8 -3 3
v  7 -3 3
v  7 -3.125 3
v  8 -3.25 3.25
v  8 -3.125 3.25
v  7 -3.125 3.25
v  7 -3.25 3.25
v  8 -3.375 3.5
v  8 -3.25 3.5
v  7 -3.25 3.5
v  7 -3.375 3.5
v  8 -3.5 3.75
v  8 -3.375 3.75
v  7 -3.375 3.75
v  7 -3.5 3.75
v  7 -3.625 4.25
v  8 -3.625 4.25
v  8 -3.625 4
v  7 -3.625 4
v  8 -3.75 4.25
v  7 -3.75 4.25
v  7 -3.5 4
v  8 -3.5 4
v  7 -3.75 4.5
v  8 -3.75 4.5
v  8 -3.875 4.5
v  7 -3.875 4.5
v  7 -3.875 4.75
v  8 -3.875 4.75
v  8 -4 4.75
v  7 -4 4.75
v  7 -4 5
v  8 -4 5
v  7 -2 6
v  7 -1 4
v  8 -2 6
v  7 -4 6
v  8 -4 6
v  3 -2 2
v  3 -2 4
v  6 -2 4
v  6 -2 2
v  5 -2 2
v  4 -2 2
v  6 0 4
v  3 0 4
v  3 0 2
v  4 0 2
v  5 0 2
v  6 0 2
v  5 -2 1.25
v  4.75 -2 1.25
v  4.25 -2 1.25
v  4 -2 1.25
v  4 -2 1.125
v  4.25 -2 1.125
v  4.75 -2 1.125
v  5 -2 1.125
v  3 -1 1
v  1 -1 1
v  7 -2 1.25
v  7 -2 1.5
v  7 -2 1.75
v  7 -2 2
v  7 -2 2.25
v  7 -2 2.5
v  7 -2 2.75
v  7 -2 3
v  7 -2 3.25
v  7 -2 3.5
v  7 -2 3.75
v  7 -2 4
v  7 -3 4
v  7 -1 2
v  7 -1 1
v  8 -2 1.25
v  8 -2 1.5
v  8 -2 1.75
v  8 -2 2
v  8 -2 2.25
v  8 -2 2.5
v  8 -2 2.75
v  8 -2 3
v  8 -2 3.25
v  8 -2 3.5
v  8 -2 3.75
v  8 -3 4
v  8 -2 4
v  8 -3.875 5
v  8 -3.75 5
v  8 -3.625 5
v  8 -3 5
v  8 -3 6
v  7 -3.875 5
v  7 -3.75 5
v  7 -3.625 5
v  7 -3 5
v  7 -3 6
v  4 0 1.25
v  4 0 1.125
v  5 0 1.25
v  5 0 1.125
v  4.25 0 1.25
v  4.75 0 1.25
v  4.75 0 1.125
v  4.25 0 1.125
v  4.75 -0.25 1.125
v  4.25 -0.25 1.125
v  4.75 -0.75 1.125
v  4.25 -0.75 1.125
v  4.25 -0.25 1.25
v  4.75 -0.25 1.25
v  4.25 -0.75 1.25
v  4.75 -0.75 1.25

# 177 UV coordinates
vt 3.5 1 0
vt 2.5 1 0
vt 2.5 0.5 0
vt 3 0.5 0
vt 3.5 0.5 0
vt 3.5 0.5625 0
vt 2 0.5 0
vt 2 1 0
vt 0 1 0
vt 0 0.5 0
vt 0.5 0.5 0
vt 1.5 0.5 0
vt 4 0.5625 0
vt 4 1 0
vt 4 0.5 0
vt 4 0 0
vt 3.5 0 0
vt 4 2.0625 0
vt 4 2 0
vt 3.5 2 0
vt 3.5 2.0625 0
vt 4 2.125 0
vt 3.5 2.125 0
vt 3.5 0.375 0
vt 4 0.375 0
vt 4 2.1875 0
vt 3.5 2.1875 0
vt 3.5 0.25 0
vt 4 0.25 0
vt 4 2.25 0
vt 3.5 2.25 0
vt 3.5 0.125 0
vt 4 0.125 0
vt 4 2.3125 0
vt 3.5 2.3125 0
vt 4 2.375 0
vt 3.5 2.375 0
vt 3.5 -0.125 0
vt 4 -0.125 0
vt 4 2.4375 0
vt 3.5 2.4375 0
vt 3.5 -0.25 0
vt 4 -0.25 0
vt 4 2.5 0
vt 3.5 2.5 0
vt 3.5 -0.375 0
vt 4 -0.375 0
vt 4 2.5625 0
vt 3.5 2.5625 0
vt 3.5 -0.5 0
vt 4 -0.5 0
vt 4 2.625 0
vt 3.5 2.625 0
vt 3.5 -0.625 0
vt 4 -0.625 0
vt 4 2.6875 0
vt 3.5 2.6875 0
vt 3.5 -0.75 0
vt 4 -0.75 0
vt 4 2.75 0
vt 3.5 2.75 0
vt 3.5 -0.875 0
vt 4 -0.875 0
vt 3.5 -1.125 0
vt 4 -1.125 0
vt 4 -1 0
vt 3.5 -1 0
vt 4 2.875 0
vt 4 2.8125 0
vt 3.5 2.8125 0
vt 3.5 2.875 0
vt 3.5 -1.25 0
vt 4 -1.25 0
vt 4 2.9375 0
vt 3.5 2.9375 0
vt 3.5 -1.375 0
vt 4 -1.375 0
vt 4 3 0
vt 3.5 3 0
vt 3.5 -1.5 0
vt 4 -1.5 0
vt 3.5 -2 0
vt 4 -2 0
vt 1.5 0 0
vt 1.5 -1 0
vt 3 -1 0
vt 3 0 0
vt 2.5 0 0
vt 2 0 0
vt 2.5 0.375 0
vt 2.375 0.375 0
vt 2.125 0.375 0
vt 2 0.375 0
vt 2 0.4375 0
vt 2.125 0.4375 0
vt 2.375 0.4375 0
vt 2.5 0.4375 0
vt 0.5 1 0
vt 1.5 1 0
vt 1.5 1.5 0
vt 0.5 1.5 0
vt 1.5 2 0
vt 0.5 2 0
vt 2.5 2 0
vt 2 2 0
vt 0 2 0
vt 0.5 2.0625 0
vt 0.625 2 0
vt 0.625 2.0625 0
vt 0.75 2.125 0
vt 0.625 2.125 0
vt 0.75 2 0
vt 0.875 2.1875 0
vt 0.75 2.1875 0
vt 0.875 2 0
vt 1 2.25 0
vt 0.875 2.25 0
vt 1 2 0
vt 1.125 2.3125 0
vt 1 2.3125 0
vt 1.125 2 0
vt 1.25 2.375 0
vt 1.125 2.375 0
vt 1.25 2 0
vt 1.375 2.4375 0
vt 1.25 2.4375 0
vt 1.375 2 0
vt 1.5 2.5 0
vt 1.375 2.5 0
vt 1.625 2 0
vt 1.625 2.5625 0
vt 1.5 2.5625 0
vt 1.75 2 0
vt 1.75 2.625 0
vt 1.625 2.625 0
vt 1.875 2 0
vt 1.875 2.6875 0
vt 1.75 2.6875 0
vt 2 2.75 0
vt 1.875 2.75 0
vt 2 2.5 0
vt 1 1.5 0
vt 1 1 0
vt 3 2 0
vt 3 1 0
vt 3.5 1.5 0
vt 2.5 2.9375 0
vt 2.375 2.9375 0
vt 2.375 3 0
vt 2.5 3 0
vt 2.25 2.875 0
vt 2.25 2.9375 0
vt 2.5 2.875 0
vt 2.125 2.875 0
vt 2.5 2.8125 0
vt 2.125 2.8125 0
vt 2 2.8125 0
vt 2.5 2.5 0
vt 3 2.5 0
vt 3 3 0
vt 2 1.5 0
vt 0.4375 2 0
vt 0.625 1 0
vt 0.5625 1 0
vt 0.5625 2 0
vt 2.125 1 0
vt 2.375 1 0
vt 2.375 1.125 0
vt 2.125 1.125 0
vt 2.375 1.375 0
vt 2.375 2 0
vt 2.125 2 0
vt 2.125 1.375 0
vt 0.5625 1.375 0
vt 0.5625 1.125 0
vt 0.625 1.125 0
vt 0.625 1.375 0

# 8 vertex normals
vn 0 1 0
vn 0 -1 0
vn 0 0 1
vn 0 -0.8944270014762878 -0.4472140073776245
vn 0 0 -1
vn 1 0 0
vn 9.999999974752427e-07 0 -1
vn -1 0 0

# Mesh '$dummy_node' with 48 faces
g $dummy_node
usemtl mat_1
f  1/1/1 2/2/1 3/3/1 4/4/1 5/5/1 6/6/1
f  7/7/1 8/8/1 9/9/1 10/10/1 11/11/1 12/12/1
f  13/3/2 14/2/2 15/1/2 16/5/2 17/4/2
f  18/10/2 19/9/2 20/8/2 21/7/2 22/12/2 23/11/2
f  1/1/1 6/6/1 24/13/1 25/14/1
f  15/1/2 26/14/2 27/15/2 16/5/2
f  6/6/1 5/5/1 28/15/1 24/13/1
f  27/15/2 29/16/2 30/17/2 16/5/2
f  31/18/3 28/19/3 5/20/3 32/21/3
f  33/22/3 34/18/3 35/21/3 36/23/3
f  32/5/1 35/24/1 34/25/1 31/15/1
f  37/26/3 38/22/3 39/23/3 40/27/3
f  36/24/1 39/28/1 38/29/1 33/25/1
f  41/30/3 42/26/3 43/27/3 44/31/3
f  40/28/1 43/32/1 42/33/1 37/29/1
f  45/34/3 46/30/3 47/31/3 48/35/3
f  44/32/1 47/17/1 46/16/1 41/33/1
f  49/36/3 50/34/3 51/35/3 52/37/3
f  48/17/1 51/38/1 50/39/1 45/16/1
f  53/40/3 54/36/3 55/37/3 56/41/3
f  52/38/1 55/42/1 54/43/1 49/39/1
f  57/44/3 58/40/3 59/41/3 60/45/3
f  56/42/1 59/46/1 58/47/1 53/43/1
f  61/48/3 62/44/3 63/45/3 64/49/3
f  60/46/1 63/50/1 62/51/1 57/47/1
f  65/52/3 66/48/3 67/49/3 68/53/3
f  64/50/1 67/54/1 66/55/1 61/51/1
f  69/56/3 70/52/3 71/53/3 72/57/3
f  68/54/1 71/58/1 70/59/1 65/55/1
f  73/60/3 74/56/3 75/57/3 76/61/3
f  72/58/1 75/62/1 74/63/1 69/59/1
f  77/64/1 78/65/1 79/66/1 80/67/1
f  81/68/3 78/69/3 77/70/3 82/71/3
f  83/67/1 84/66/1 73/63/1 76/62/1
f  79/69/3 84/60/3 83/61/3 80/70/3
f  85/72/1 86/73/1 81/65/1 82/64/1
f  87/74/3 86/68/3 85/71/3 88/75/3
f  89/76/1 90/77/1 87/73/1 88/72/1
f  91/78/3 90/74/3 89/75/3 92/79/3
f  93/80/1 94/81/1 91/77/1 92/76/1
f  95/82/4 96/67/4 30/17/4 29/16/4 97/83/4
f  93/80/1 98/82/1 99/83/1 94/81/1
f  100/84/1 101/85/1 102/86/1 103/87/1 104/88/1 105/89/1
f  106/86/2 107/85/2 108/84/2 109/89/2 110/88/2 111/87/2
f  112/90/1 113/91/1 114/92/1 115/93/1 105/89/1 104/88/1
f  3/3/1 7/7/1 116/94/1 117/95/1 118/96/1 119/97/1
f  7/7/1 3/3/1 2/2/1 8/8/1
f  14/2/2 13/3/2 21/7/2 20/8/2

# Mesh '$dummy_node' with 76 faces
g $dummy_node
usemtl mat_2
f  23/98/5 22/99/5 120/100/5 121/101/5
f  12/102/5 11/103/5 121/101/5 120/100/5
f  2/104/3 1/20/3 15/1/3 14/2/3
f  8/105/3 20/8/3 19/9/3 9/106/3
f  19/9/6 18/98/6 10/103/6 9/106/6
f  32/107/6 5/103/6 122/108/6 35/109/6
f  39/110/6 36/111/6 35/109/6 122/108/6 123/112/6
f  43/113/6 40/114/6 39/110/6 123/112/6 124/115/6
f  47/116/6 44/117/6 43/113/6 124/115/6 125/118/6
f  51/119/6 48/120/6 47/116/6 125/118/6 126/121/6
f  55/122/6 52/123/6 51/119/6 126/121/6 127/124/6
f  59/125/6 56/126/6 55/122/6 127/124/6 128/127/6
f  63/128/6 60/129/6 59/125/6 128/127/6 129/102/6
f  130/130/6 67/131/6 64/132/6 63/128/6 129/102/6
f  131/133/6 71/134/6 68/135/6 67/131/6 130/130/6
f  132/136/6 75/137/6 72/138/6 71/134/6 131/133/6
f  83/139/6 76/140/6 75/137/6 132/136/6 133/105/6 134/141/6
f  135/142/6 136/101/6 16/98/6 30/143/6
f  135/142/6 125/118/6 124/115/6 123/112/6 122/108/6 5/103/6 136/101/6
f  5/20/7 4/144/7 17/145/7 16/1/7 136/146/7
f  34/109/8 137/108/8 28/103/8 31/107/8
f  137/108/8 34/109/8 33/111/8 38/110/8 138/112/8
f  138/112/8 38/110/8 37/114/8 42/113/8 139/115/8
f  139/115/8 42/113/8 41/117/8 46/116/8 140/118/8
f  140/118/8 46/116/8 45/120/8 50/119/8 141/121/8
f  141/121/8 50/119/8 49/123/8 54/122/8 142/124/8
f  142/124/8 54/122/8 53/126/8 58/125/8 143/127/8
f  143/127/8 58/125/8 57/129/8 62/128/8 144/102/8
f  144/102/8 62/128/8 61/132/8 66/131/8 145/130/8
f  145/130/8 66/131/8 65/135/8 70/134/8 146/133/8
f  146/133/8 70/134/8 69/138/8 74/137/8 147/136/8
f  147/136/8 74/137/8 73/140/8 84/139/8 148/141/8 149/105/8
f  150/147/8 90/148/8 91/149/8 94/150/8
f  86/151/8 87/152/8 90/148/8 150/147/8 151/153/8
f  81/154/8 86/151/8 151/153/8 152/155/8 78/156/8
f  79/157/8 78/156/8 152/155/8 153/158/8 148/141/8 84/139/8
f  154/159/8 153/158/8 152/155/8 151/153/8 150/147/8 94/150/8 99/160/8
f  149/105/8 148/141/8 153/158/8 154/159/8 97/144/8
f  89/148/6 155/147/6 93/150/6 92/149/6
f  155/147/6 89/148/6 88/152/6 85/151/6 156/153/6
f  156/153/6 85/151/6 82/154/6 77/156/6 157/155/6
f  157/155/6 77/156/6 80/157/6 83/139/6 134/141/6 158/158/6
f  93/150/6 155/147/6 156/153/6 157/155/6 158/158/6 159/159/6 98/160/6
f  159/159/6 158/158/6 134/141/6 133/105/6 95/144/6
f  96/161/6 95/144/6 133/105/6
f  25/19/3 26/14/3 15/1/3 1/20/3
f  29/143/8 140/118/8 141/121/8 142/124/8 143/127/8 144/102/8 145/130/8 146/133/8 147/136/8 149/105/8 97/144/8
f  27/98/8 28/103/8 137/108/8 138/112/8 139/115/8 140/118/8 29/143/8
f  25/106/8 24/162/8 28/103/8 27/98/8 26/9/8
f  107/99/5 106/145/5 102/144/5 101/102/5
f  108/143/6 107/8/6 101/105/6 100/118/6
f  12/102/5 120/100/5 22/99/5 21/8/5 7/105/5
f  105/105/3 109/8/3 108/99/3 100/102/3
f  13/2/5 17/145/5 4/144/5 3/104/5
f  103/144/3 111/145/3 110/2/3 104/104/3
f  102/105/8 106/8/8 111/143/8 103/118/8
f  125/118/6 135/142/6 30/143/6 96/161/6 133/105/6 132/136/6 131/133/6 130/130/6 129/102/6 128/127/6 127/124/6 126/121/6
f  160/163/6 109/143/6 105/118/6 115/108/6
f  21/98/6 161/164/6 116/165/6 7/103/6
f  112/108/8 104/118/8 110/143/8 162/163/8
f  3/103/8 119/165/8 163/164/8 13/98/8
f  109/89/2 160/93/2 164/92/2 165/91/2 162/90/2 110/88/2
f  163/97/2 166/96/2 167/95/2 161/94/2 21/7/2 13/3/2
f  8/105/3 2/104/3 14/2/3 20/8/3
f  167/166/5 166/167/5 168/168/5 169/169/5
f  170/170/5 118/171/5 117/172/5 171/173/5
f  118/171/5 170/170/5 168/168/5 166/167/5 163/2/5 119/104/5
f  117/172/5 116/105/5 161/8/5 167/166/5 169/169/5 171/173/5
f  165/167/3 164/166/3 172/169/3 173/168/3
f  174/173/3 114/172/3 113/171/3 175/170/3
f  113/171/3 112/104/3 162/2/3 165/167/3 173/168/3 175/170/3
f  114/172/3 174/173/3 172/169/3 164/166/3 160/8/3 115/105/3
f  171/174/6 169/175/6 172/176/6 174/177/6
f  170/174/8 175/177/8 173/176/8 168/175/8
f  171/95/1 174/92/1 175/91/1 170/96/1
f  169/95/2 168/96/2 173/91/2 172/92/2

