# File produced by Open Asset Import Library (http://www.assimp.sf.net)
# (assimp v4.1.0)

mtllib w3797rbs60bo.mtl

# 151 vertex positions
v  3 -2 0
v  3 -2 1
v  7 -2 1
v  7 -2 0.875
v  7 -2 0
v  2 0 0
v  7 0 0
v  7 0 1
v  2 0 1
v  8 -2 0.875
v  8 -2 0
v  8 0 0
v  8 0 1
v  8 -2 1
v  8 0 2
v  7 0 2
v  8 -2.125 1
v  7 -2.125 1
v  8 -2.25 1.25
v  8 -2.125 1.25
v  7 -2.125 1.25
v  7 -2.25 1.25
v  8 -2.375 1.5
v  8 -2.25 1.5
v  7 -2.25 1.5
v  7 -2.375 1.5
v  8 -2.5 1.75
v  8 -2.375 1.75
v  7 -2.375 1.75
v  7 -2.5 1.75
v  8 -2.625 2
v  8 -2.5 2
v  7 -2.5 2
v  7 -2.625 2
v  8 -2.75 2.25
v  8 -2.625 2.25
v  7 -2.625 2.25
v  7 -2.75 2.25
v  8 -2.875 2.5
v  8 -2.75 2.5
v  7 -2.75 2.5
v  7 -2.875 2.5
v  8 -3 2.75
v  8 -2.875 2.75
v  7 -2.875 2.75
v  7 -3 2.75
v  8 -3.125 3
v  8 -3 3
v  7 -3 3
v  7 -3.125 3
v  8 -3.25 3.25
v  8 -3.125 3.25
v  7 -3.125 3.25
v  7 -3.25 3.25
v  8 -3.375 3.5
v  8 -3.25 3.5
v  7 -3.25 3.5
v  7 -3.375 3.5
v  8 -3.5 3.75
v  8 -3.375 3.75
v  7 -3.375 3.75
v  7 -3.5 3.75
v  7 -3.625 4.25
v  8 -3.625 4.25
v  8 -3.625 4
v  7 -3.625 4
v  8 -3.75 4.25
v  7 -3.75 4.25
v  7 -3.5 4
v  8 -3.5 4
v  7 -3.75 4.5
v  8 -3.75 4.5
v  8 -3.875 4.5
v  7 -3.875 4.5
v  7 -3.875 4.75
v  8 -3.875 4.75
v  8 -4 4.75
v  7 -4 4.75
v  7 -4 5
v  8 -4 5
v  8 -2 6
v  7 -2 6
v  7 -4 6
v  8 -4 6
v  0 -2 0
v  0 -2 1
v  1 -2 1
v  2 -2 1
v  1 -2 0
v  0 0 0
v  1 0 0
v  1 0 1
v  0 0 1
v  1 -2 -4
v  0 -2 -4
v  1 -2 -1
v  1 -2 -2
v  1 -2 -3
v  0 0 -4
v  1 0 -4
v  1 0 -3
v  1 0 -2
v  1 0 -1
v  8 -2 -4
v  7 -2 -4
v  7 -2 -3
v  8 -2 -3
v  7 0 -4
v  8 0 -4
v  8 0 -3
v  7 0 -3
v  7 -2 -2
v  7 -2 -1
v  7 0 -2
v  7 0 -1
v  8 -2 1.25
v  8 -2 1.5
v  8 -2 1.75
v  8 -2 2
v  8 -2 2.25
v  8 -2 2.5
v  8 -2 2.75
v  8 -2 3
v  8 -2 3.25
v  8 -2 3.5
v  8 -2 3.75
v  8 -3 4
v  8 -2 4
v  8 -3.875 5
v  8 -3.75 5
v  8 -3.625 5
v  8 -3 5
v  8 -3 6
v  7 -2 2
v  7 -2 1.75
v  7 -2 1.5
v  7 -2 1.25
v  7 -2 4
v  7 -2 3.75
v  7 -2 3.5
v  7 -2 3.25
v  7 -2 3
v  7 -2 2.75
v  7 -2 2.5
v  7 -2 2.25
v  7 -3 4
v  7 -3.875 5
v  7 -3.75 5
v  7 -3.625 5
v  7 -3 5
v  7 -3 6

# 150 UV coordinates
vt 1.5 1 0
vt 1.5 0.5 0
vt 3.5 0.5 0
vt 3.5 0.5625 0
vt 3.5 1 0
vt 1 1 0
vt 1 0.5 0
vt 4 0.5625 0
vt 4 1 0
vt 4 0.5 0
vt 4 0 0
vt 3.5 0 0
vt 4 2.0625 0
vt 4 2 0
vt 3.5 2 0
vt 3.5 2.0625 0
vt 4 2.125 0
vt 3.5 2.125 0
vt 3.5 0.375 0
vt 4 0.375 0
vt 4 2.1875 0
vt 3.5 2.1875 0
vt 3.5 0.25 0
vt 4 0.25 0
vt 4 2.25 0
vt 3.5 2.25 0
vt 3.5 0.125 0
vt 4 0.125 0
vt 4 2.3125 0
vt 3.5 2.3125 0
vt 4 2.375 0
vt 3.5 2.375 0
vt 3.5 -0.125 0
vt 4 -0.125 0
vt 4 2.4375 0
vt 3.5 2.4375 0
vt 3.5 -0.25 0
vt 4 -0.25 0
vt 4 2.5 0
vt 3.5 2.5 0
vt 3.5 -0.375 0
vt 4 -0.375 0
vt 4 2.5625 0
vt 3.5 2.5625 0
vt 3.5 -0.5 0
vt 4 -0.5 0
vt 4 2.625 0
vt 3.5 2.625 0
vt 3.5 -0.625 0
vt 4 -0.625 0
vt 4 2.6875 0
vt 3.5 2.6875 0
vt 3.5 -0.75 0
vt 4 -0.75 0
vt 4 2.75 0
vt 3.5 2.75 0
vt 3.5 -0.875 0
vt 4 -0.875 0
vt 3.5 -1.125 0
vt 4 -1.125 0
vt 4 -1 0
vt 3.5 -1 0
vt 4 2.875 0
vt 4 2.8125 0
vt 3.5 2.8125 0
vt 3.5 2.875 0
vt 3.5 -1.25 0
vt 4 -1.25 0
vt 4 2.9375 0
vt 3.5 2.9375 0
vt 3.5 -1.375 0
vt 4 -1.375 0
vt 4 3 0
vt 3.5 3 0
vt 3.5 -1.5 0
vt 4 -1.5 0
vt 4 -2 0
vt 3.5 -2 0
vt 0 1 0
vt -0 0.5 0
vt 0.5 0.5 0
vt 0.5 1 0
vt 0.5 3 0
vt 0 3 0
vt 0.5 1.5 0
vt 0.5 2 0
vt 0.5 2.5 0
vt 3.5 1.5 0
vt 1 2 0
vt 0.625 2.0625 0
vt 0.625 2 0
vt 0.5 2.0625 0
vt 0.625 2.125 0
vt 0.75 2.125 0
vt 0.75 2 0
vt 0.75 2.1875 0
vt 0.875 2.1875 0
vt 0.875 2 0
vt 0.875 2.25 0
vt 1 2.25 0
vt 1 2.3125 0
vt 1.125 2.3125 0
vt 1.125 2 0
vt 1.125 2.375 0
vt 1.25 2.375 0
vt 1.25 2 0
vt 1.25 2.4375 0
vt 1.375 2.4375 0
vt 1.375 2 0
vt 1.375 2.5 0
vt 1.5 2.5 0
vt 1.5 2 0
vt 1.5 2.5625 0
vt 1.625 2.5625 0
vt 1.625 2 0
vt 1.625 2.625 0
vt 1.75 2.625 0
vt 1.75 2 0
vt 1.75 2.6875 0
vt 1.875 2.6875 0
vt 1.875 2 0
vt 1.875 2.75 0
vt 2 2.75 0
vt 2 2.5 0
vt 2 2 0
vt 2.5 2.9375 0
vt 2.375 2.9375 0
vt 2.375 3 0
vt 2.5 3 0
vt 2.25 2.875 0
vt 2.25 2.9375 0
vt 2.5 2.875 0
vt 2.125 2.875 0
vt 2.5 2.8125 0
vt 2.125 2.8125 0
vt 2 2.8125 0
vt 2.5 2.5 0
vt 3 2.5 0
vt 3 3 0
vt 3 2 0
vt 0 2 0
vt 0.4375 2 0
vt -2 1 0
vt -2 2 0
vt -1.5 2 0
vt -1.5 1 0
vt -1 2 0
vt -1 1 0
vt -0.5 1 0
vt -0.5 2 0

# 7 vertex normals
vn 0 1 0
vn 0 -1 0
vn 0 0 1
vn 0 -0.8944270014762878 -0.4472140073776245
vn 0 0 -1
vn -1 0 0
vn 1 0 0

# Mesh '$dummy_node' with 50 faces
g $dummy_node
usemtl mat_1
f  1/1/1 2/2/1 3/3/1 4/4/1 5/5/1
f  6/6/2 7/5/2 8/3/2 9/7/2
f  5/5/1 4/4/1 10/8/1 11/9/1
f  7/5/2 12/9/2 13/10/2 8/3/2
f  4/4/1 3/3/1 14/10/1 10/8/1
f  13/10/2 15/11/2 16/12/2 8/3/2
f  17/13/3 14/14/3 3/15/3 18/16/3
f  19/17/3 20/13/3 21/16/3 22/18/3
f  18/3/1 21/19/1 20/20/1 17/10/1
f  23/21/3 24/17/3 25/18/3 26/22/3
f  22/19/1 25/23/1 24/24/1 19/20/1
f  27/25/3 28/21/3 29/22/3 30/26/3
f  26/23/1 29/27/1 28/28/1 23/24/1
f  31/29/3 32/25/3 33/26/3 34/30/3
f  30/27/1 33/12/1 32/11/1 27/28/1
f  35/31/3 36/29/3 37/30/3 38/32/3
f  34/12/1 37/33/1 36/34/1 31/11/1
f  39/35/3 40/31/3 41/32/3 42/36/3
f  38/33/1 41/37/1 40/38/1 35/34/1
f  43/39/3 44/35/3 45/36/3 46/40/3
f  42/37/1 45/41/1 44/42/1 39/38/1
f  47/43/3 48/39/3 49/40/3 50/44/3
f  46/41/1 49/45/1 48/46/1 43/42/1
f  51/47/3 52/43/3 53/44/3 54/48/3
f  50/45/1 53/49/1 52/50/1 47/46/1
f  55/51/3 56/47/3 57/48/3 58/52/3
f  54/49/1 57/53/1 56/54/1 51/50/1
f  59/55/3 60/51/3 61/52/3 62/56/3
f  58/53/1 61/57/1 60/58/1 55/54/1
f  63/59/1 64/60/1 65/61/1 66/62/1
f  67/63/3 64/64/3 63/65/3 68/66/3
f  69/62/1 70/61/1 59/58/1 62/57/1
f  65/64/3 70/55/3 69/56/3 66/65/3
f  71/67/1 72/68/1 67/60/1 68/59/1
f  73/69/3 72/63/3 71/66/3 74/70/3
f  75/71/1 76/72/1 73/68/1 74/67/1
f  77/73/3 76/69/3 75/70/3 78/74/3
f  79/75/1 80/76/1 77/72/1 78/71/1
f  16/12/4 15/11/4 81/77/4 82/78/4
f  79/75/1 83/78/1 84/77/1 80/76/1
f  85/79/1 86/80/1 86/80/1 87/81/1 88/7/1 2/2/1 1/1/1 89/82/1
f  90/79/2 91/82/2 6/6/2 9/7/2 92/81/2 93/80/2
f  94/83/1 95/84/1 85/79/1 89/82/1 96/85/1 97/86/1 98/87/1
f  90/79/2 99/84/2 100/83/2 101/87/2 102/86/2 103/85/2 91/82/2
f  104/73/1 105/74/1 94/83/1 98/87/1 106/40/1 107/39/1
f  101/87/2 100/83/2 108/74/2 109/73/2 110/39/2 111/40/2
f  112/15/1 97/86/1 96/85/1 113/88/1
f  102/86/2 114/15/2 115/88/2 103/85/2
f  107/39/1 106/40/1 112/15/1 113/88/1 5/5/1 11/9/1
f  7/5/2 115/88/2 114/15/2 111/40/2 110/39/2 12/9/2

# Mesh '$dummy_node' with 56 faces
g $dummy_node
usemtl mat_2
f  92/82/5 9/6/5 88/89/5 87/86/5
f  20/90/6 116/91/6 14/86/6 17/92/6
f  116/91/6 20/90/6 19/93/6 24/94/6 117/95/6
f  117/95/6 24/94/6 23/96/6 28/97/6 118/98/6
f  118/98/6 28/97/6 27/99/6 32/100/6 119/89/6
f  119/89/6 32/100/6 31/101/6 36/102/6 120/103/6
f  120/103/6 36/102/6 35/104/6 40/105/6 121/106/6
f  121/106/6 40/105/6 39/107/6 44/108/6 122/109/6
f  122/109/6 44/108/6 43/110/6 48/111/6 123/112/6
f  123/112/6 48/111/6 47/113/6 52/114/6 124/115/6
f  124/115/6 52/114/6 51/116/6 56/117/6 125/118/6
f  125/118/6 56/117/6 55/119/6 60/120/6 126/121/6
f  126/121/6 60/120/6 59/122/6 70/123/6 127/124/6 128/125/6
f  129/126/6 76/127/6 77/128/6 80/129/6
f  72/130/6 73/131/6 76/127/6 129/126/6 130/132/6
f  67/133/6 72/130/6 130/132/6 131/134/6 64/135/6
f  65/136/6 64/135/6 131/134/6 132/137/6 127/124/6 70/123/6
f  133/138/6 132/137/6 131/134/6 130/132/6 129/126/6 80/129/6 84/139/6
f  128/125/6 127/124/6 132/137/6 133/138/6 81/140/6
f  15/6/6 119/89/6 120/103/6 121/106/6 122/109/6 123/112/6 124/115/6 125/118/6 126/121/6 128/125/6 81/140/6
f  13/82/6 14/86/6 116/91/6 117/95/6 118/98/6 119/89/6 15/6/6
f  11/141/6 10/142/6 14/86/6 13/82/6 12/79/6
f  90/79/7 93/82/7 86/86/7 85/141/7
f  99/143/7 90/79/7 85/141/7 95/144/7
f  105/15/3 104/14/3 109/9/3 108/5/3
f  95/141/3 94/86/3 105/15/3 108/5/3 100/82/3 99/79/3
f  104/144/6 107/145/6 11/141/6 12/79/6 110/146/6 109/143/6
f  97/147/6 102/148/6 101/146/6 98/145/6
f  111/146/7 114/148/7 112/147/7 106/145/7
f  101/82/5 111/5/5 106/15/5 98/86/5
f  112/15/3 114/5/3 102/82/3 97/86/3
f  89/141/6 91/79/6 103/149/6 96/150/6
f  115/149/7 7/79/7 5/141/7 113/150/7
f  103/82/5 115/5/5 113/15/5 96/86/5
f  89/86/3 1/112/3 5/15/3 7/5/3 6/6/3 91/82/3
f  16/6/7 134/89/7 135/98/7 136/95/7 137/91/7 3/86/7 8/82/7
f  18/92/7 3/86/7 137/91/7 21/90/7
f  25/94/7 22/93/7 21/90/7 137/91/7 136/95/7
f  29/97/7 26/96/7 25/94/7 136/95/7 135/98/7
f  33/100/7 30/99/7 29/97/7 135/98/7 134/89/7
f  3/15/5 2/112/5 2/112/5 88/89/5 9/6/5 8/5/5
f  82/140/7 138/125/7 139/121/7 140/118/7 141/115/7 142/112/7 143/109/7 144/106/7 145/103/7 134/89/7 16/6/7
f  145/103/7 37/102/7 34/101/7 33/100/7 134/89/7
f  144/106/7 41/105/7 38/104/7 37/102/7 145/103/7
f  143/109/7 45/108/7 42/107/7 41/105/7 144/106/7
f  49/111/7 46/110/7 45/108/7 143/109/7 142/112/7
f  141/115/7 53/114/7 50/113/7 49/111/7 142/112/7
f  140/118/7 57/117/7 54/116/7 53/114/7 141/115/7
f  139/121/7 61/120/7 58/119/7 57/117/7 140/118/7
f  69/123/7 62/122/7 61/120/7 139/121/7 138/125/7 146/124/7
f  75/127/7 147/126/7 79/129/7 78/128/7
f  147/126/7 75/127/7 74/131/7 71/130/7 148/132/7
f  148/132/7 71/130/7 68/133/7 63/135/7 149/134/7
f  150/137/7 149/134/7 63/135/7 66/136/7 69/123/7 146/124/7
f  83/139/7 79/129/7 147/126/7 148/132/7 149/134/7 150/137/7 151/138/7
f  151/138/7 150/137/7 146/124/7 138/125/7 82/140/7

