# File produced by Open Asset Import Library (http://www.assimp.sf.net)
# (assimp v4.1.0)

mtllib mjqn8a5512px.mtl

# 250 vertex positions
v  4 0 1
v  6 0 1
v  6 -2 1
v  4 -2 1
v  5 0 0
v  4 0 0
v  4 -2 0
v  5 -2 0
v  7 -2.125 1
v  7 -2 1
v  7 -2 1.25
v  7 -2.125 1.25
v  7 -2.25 1.5
v  7 -2.25 1.25
v  7 -2 1.5
v  7 -2.375 1.75
v  7 -2.375 1.5
v  7 -2 1.75
v  7 -2.5 2
v  7 -2.5 1.75
v  7 -2 2
v  7 -2.625 2.25
v  7 -2.625 2
v  7 -2 2.25
v  7 -2.75 2.5
v  7 -2.75 2.25
v  7 -2 2.5
v  7 -2.875 2.75
v  7 -2.875 2.5
v  7 -2 2.75
v  7 -3 3
v  7 -3 2.75
v  7 -2 3
v  7 -2 3.25
v  7 -3.125 3.25
v  7 -3.125 3
v  7 -2 3.5
v  7 -3.25 3.5
v  7 -3.25 3.25
v  7 -2 3.75
v  7 -3.375 3.75
v  7 -3.375 3.5
v  7 -3.5 4
v  7 -3.5 3.75
v  7 -2 4
v  7 -3 4
v  7 -1 2
v  7 -1 1
v  7 0 1
v  7 0 2
v  8 -2.125 1.25
v  8 -2 1.25
v  8 -2 1
v  8 -2.125 1
v  8 -2.25 1.25
v  8 -2.25 1.5
v  8 -2 1.5
v  8 -2.375 1.5
v  8 -2.375 1.75
v  8 -2 1.75
v  8 -2.5 1.75
v  8 -2.5 2
v  8 -2 2
v  8 -2.625 2
v  8 -2.625 2.25
v  8 -2 2.25
v  8 -2.75 2.25
v  8 -2.75 2.5
v  8 -2 2.5
v  8 -2.875 2.5
v  8 -2.875 2.75
v  8 -2 2.75
v  8 -3 2.75
v  8 -3 3
v  8 -2 3
v  8 -3.125 3
v  8 -3.125 3.25
v  8 -2 3.25
v  8 -3.25 3.25
v  8 -3.25 3.5
v  8 -2 3.5
v  8 -3.375 3.5
v  8 -3.375 3.75
v  8 -2 3.75
v  8 -3.5 3.75
v  8 -3.5 4
v  8 -3 4
v  8 -2 4
v  8 -3.875 5
v  8 -3.875 4.75
v  8 -4 4.75
v  8 -4 5
v  8 -3.75 4.5
v  8 -3.875 4.5
v  8 -3.75 5
v  8 -3.75 4.25
v  8 -3.625 5
v  8 -3.625 4.25
v  8 -3.625 4
v  8 -3 5
v  8 -3 6
v  8 -4 6
v  8 -2 6
v  7 -3.875 4.75
v  7 -3.875 5
v  7 -4 5
v  7 -4 4.75
v  7 -3.875 4.5
v  7 -3.75 4.5
v  7 -3.75 5
v  7 -3.75 4.25
v  7 -3.625 4.25
v  7 -3.625 5
v  7 -3.625 4
v  7 -3 5
v  7 -3 6
v  7 -4 6
v  7 -2 6
v  8 0 2
v  8 0 1
v  8 0 0
v  8 -2 0
v  0 0 0
v  0 0 1
v  0 -2 1
v  0 -2 0
v  0 -2 -2
v  0 0 -2
v  1 -2 -2
v  1 -2 0
v  1 0 0
v  1 0 -2
v  2 -2 -3
v  2 -2 -2
v  2 0 -2
v  2 0 -3
v  -1 0 -3
v  -1 -2 -3
v  0 -2 -3
v  1 -2 -3
v  1 0 -3
v  0 0 -3
v  -1 -2 -2
v  -1 0 -2
v  -3 -2 -3
v  -3 0 -3
v  -3 0 -2
v  -3 -2 -2
v  -2 -2 -3
v  -2 0 -3
v  1 0 -5
v  1 -2 -5
v  2 -2 -6
v  2 0 -6
v  1 -2 -6
v  1 0 -6
v  -1 -2 -6
v  -1 0 -6
v  -1 0 -5
v  -1 -2 -5
v  0 -2 -6
v  0 0 -6
v  0 -2 -5
v  0 0 -5
v  -3 -2 -7
v  -3 0 -7
v  -2 -2 -7
v  -2 0 -7
v  -3 -2 -8
v  -3 0 -8
v  4 -2 -8
v  4 -2 -7
v  4 0 -7
v  4 0 -8
v  -2 -2 -8
v  -1 -2 -8
v  0 -2 -8
v  1 -2 -8
v  2 -2 -8
v  2 0 -8
v  1 0 -8
v  0 0 -8
v  -1 0 -8
v  -2 0 -8
v  -1 0 -7
v  -1 -2 -7
v  0 0 -7
v  0 -2 -7
v  1 0 -7
v  2 0 -7
v  3 0 -7
v  3 -2 -7
v  2 -2 -7
v  1 -2 -7
v  3 0 -3
v  3 -2 -3
v  4 -2 -3
v  4 0 -3
v  3 0 -2
v  3 -2 -2
v  6 -2 -3
v  6 -2 -2
v  6 0 -2
v  6 0 -3
v  5 -2 -3
v  5 0 -3
v  5 -2 -2
v  4 -2 -2
v  4 0 -2
v  5 0 -2
v  6 -2 0
v  6 0 0
v  1 -2 1
v  1 0 1
v  3 -2 1
v  3 -2 0
v  3 -2 -1
v  3 0 -1
v  3 0 0
v  3 0 1
v  4 -2 -1
v  4 0 -1
v  5 -2 -5
v  5 0 -5
v  6 -2 -5
v  6 0 -5
v  5 -2 -6
v  5 0 -6
v  8 -2 -6
v  8 -2 -5
v  8 0 -5
v  8 0 -6
v  6 -2 -6
v  7 -2 -6
v  7 0 -6
v  6 0 -6
v  7 0 -5
v  7 -2 -5
v  7 0 -7
v  7 -2 -7
v  8 -2 -8
v  8 0 -8
v  7 -2 -8
v  7 0 -8
v  6 -2 -8
v  6 0 -8
v  6 0 -7
v  6 -2 -7
v  7 0 0
v  7 -2 0

# 198 UV coordinates
vt 2 1 0
vt 3 1 0
vt 3 2 0
vt 2 2 0
vt 2.5 1 0
vt 2.5 2 0
vt 0.5 2.0625 0
vt 0.5 2 0
vt 0.625 2 0
vt 0.625 2.0625 0
vt 0.75 2.125 0
vt 0.625 2.125 0
vt 0.75 2 0
vt 0.875 2.1875 0
vt 0.75 2.1875 0
vt 0.875 2 0
vt 1 2.25 0
vt 0.875 2.25 0
vt 1 2 0
vt 1.125 2.3125 0
vt 1 2.3125 0
vt 1.125 2 0
vt 1.25 2.375 0
vt 1.125 2.375 0
vt 1.25 2 0
vt 1.375 2.4375 0
vt 1.25 2.4375 0
vt 1.375 2 0
vt 1.5 2.5 0
vt 1.375 2.5 0
vt 1.5 2 0
vt 1.625 2 0
vt 1.625 2.5625 0
vt 1.5 2.5625 0
vt 1.75 2 0
vt 1.75 2.625 0
vt 1.625 2.625 0
vt 1.875 2 0
vt 1.875 2.6875 0
vt 1.75 2.6875 0
vt 2 2.75 0
vt 1.875 2.75 0
vt 2 2.5 0
vt 1 1.5 0
vt 0.5 1.5 0
vt 0.5 1 0
vt 1 1 0
vt 2.5 2.9375 0
vt 2.375 2.9375 0
vt 2.375 3 0
vt 2.5 3 0
vt 2.25 2.875 0
vt 2.25 2.9375 0
vt 2.5 2.875 0
vt 2.125 2.875 0
vt 2.5 2.8125 0
vt 2.125 2.8125 0
vt 2 2.8125 0
vt 2.5 2.5 0
vt 3 2.5 0
vt 3 3 0
vt 0 1 0
vt 0 2 0
vt -1 2 0
vt -1 1 0
vt -1.5 2 0
vt -1.5 1 0
vt -0.5 1 0
vt -0.5 2 0
vt -2.5 1 0
vt -2.5 2 0
vt -3 2 0
vt -3 1 0
vt -3.5 2 0
vt -3.5 1 0
vt -4 2 0
vt -4 1 0
vt 1.5 1 0
vt 3.5 2 0
vt 3.5 1 0
vt 4 2 0
vt 4 1 0
vt 4 0.5 0
vt 4 0 0
vt 3.5 0 0
vt 3.5 0.5 0
vt 4 2.125 0
vt 4 2.0625 0
vt 3.5 2.0625 0
vt 3.5 2.125 0
vt 3.5 0.375 0
vt 4 0.375 0
vt 4 2.1875 0
vt 3.5 2.1875 0
vt 3.5 0.25 0
vt 4 0.25 0
vt 4 2.25 0
vt 3.5 2.25 0
vt 3.5 0.125 0
vt 4 0.125 0
vt 4 2.3125 0
vt 3.5 2.3125 0
vt 4 2.375 0
vt 3.5 2.375 0
vt 3.5 -0.125 0
vt 4 -0.125 0
vt 4 2.4375 0
vt 3.5 2.4375 0
vt 3.5 -0.25 0
vt 4 -0.25 0
vt 4 2.5 0
vt 3.5 2.5 0
vt 3.5 -0.375 0
vt 4 -0.375 0
vt 4 2.5625 0
vt 3.5 2.5625 0
vt 3.5 -0.5 0
vt 4 -0.5 0
vt 4 2.625 0
vt 3.5 2.625 0
vt 3.5 -0.625 0
vt 4 -0.625 0
vt 4 2.6875 0
vt 3.5 2.6875 0
vt 3.5 -0.75 0
vt 4 -0.75 0
vt 4 2.75 0
vt 3.5 2.75 0
vt 3.5 -0.875 0
vt 4 -0.875 0
vt 3.5 -1.125 0
vt 4 -1.125 0
vt 4 -1 0
vt 3.5 -1 0
vt 4 2.875 0
vt 4 2.8125 0
vt 3.5 2.8125 0
vt 3.5 2.875 0
vt 3.5 -1.25 0
vt 4 -1.25 0
vt 4 2.9375 0
vt 3.5 2.9375 0
vt 3.5 -1.375 0
vt 4 -1.375 0
vt 4 3 0
vt 3.5 3 0
vt 3.5 -1.5 0
vt 4 -1.5 0
vt 4 -2 0
vt 3.5 -2 0
vt 2 0.5 0
vt 1.5 0.5 0
vt 3 0.5 0
vt 0.5 0.5 0
vt 0 0.5 0
vt 0.5 4 0
vt 0.5 3.5 0
vt 0 3.5 0
vt 0 4 0
vt 0.5 5 0
vt 0.5 4.5 0
vt 0 4.5 0
vt 0 5 0
vt 0.5 2.5 0
vt 0 2.5 0
vt 1 2.5 0
vt 1 5 0
vt 1 4.5 0
vt 1 4 0
vt 1.5 1.5 0
vt 2 1.5 0
vt 1.5 4.5 0
vt 2 4.5 0
vt 2 5 0
vt 2.5 4 0
vt 3 4 0
vt 3 3.5 0
vt 2.5 3.5 0
vt 3.5 4 0
vt 3.5 3.5 0
vt 3 4.5 0
vt 3 5 0
vt 3.5 5 0
vt 3.5 4.5 0
vt 4 4 0
vt 4 5 0
vt 4 3.5 0
vt -0.5 2.5 0
vt -0.5 3.5 0
vt -0.5 4 0
vt -0.5 4.5 0
vt -0.5 5 0
vt -1.5 2.5 0
vt -1 2.5 0
vt -1.5 5 0
vt -1 5 0
vt -1 4.5 0
vt -1.5 4.5 0

# 7 vertex normals
vn 0 0 -1
vn 0 0 1
vn 1 0 0
vn -1 0 0
vn 0 -1 0
vn 0 1 0
vn 0 -0.8944270014762878 -0.4472140073776245

# Mesh '$dummy_node' with 97 faces
g $dummy_node
usemtl mat_1
f  1/1/1 2/2/1 3/3/1 4/4/1
f  5/5/2 6/1/2 7/4/2 8/6/2
f  9/7/3 10/8/3 11/9/3 12/10/3
f  13/11/3 14/12/3 12/10/3 11/9/3 15/13/3
f  16/14/3 17/15/3 13/11/3 15/13/3 18/16/3
f  19/17/3 20/18/3 16/14/3 18/16/3 21/19/3
f  22/20/3 23/21/3 19/17/3 21/19/3 24/22/3
f  25/23/3 26/24/3 22/20/3 24/22/3 27/25/3
f  28/26/3 29/27/3 25/23/3 27/25/3 30/28/3
f  31/29/3 32/30/3 28/26/3 30/28/3 33/31/3
f  34/32/3 35/33/3 36/34/3 31/29/3 33/31/3
f  37/35/3 38/36/3 39/37/3 35/33/3 34/32/3
f  40/38/3 41/39/3 42/40/3 38/36/3 37/35/3
f  43/41/3 44/42/3 41/39/3 40/38/3 45/4/3 46/43/3
f  47/44/3 48/45/3 49/46/3 50/47/3
f  47/44/3 21/19/3 18/16/3 15/13/3 11/9/3 10/8/3 48/45/3
f  51/10/4 52/9/4 53/8/4 54/7/4
f  52/9/4 51/10/4 55/12/4 56/11/4 57/13/4
f  57/13/4 56/11/4 58/15/4 59/14/4 60/16/4
f  60/16/4 59/14/4 61/18/4 62/17/4 63/19/4
f  63/19/4 62/17/4 64/21/4 65/20/4 66/22/4
f  66/22/4 65/20/4 67/24/4 68/23/4 69/25/4
f  69/25/4 68/23/4 70/27/4 71/26/4 72/28/4
f  72/28/4 71/26/4 73/30/4 74/29/4 75/31/4
f  75/31/4 74/29/4 76/34/4 77/33/4 78/32/4
f  78/32/4 77/33/4 79/37/4 80/36/4 81/35/4
f  81/35/4 80/36/4 82/40/4 83/39/4 84/38/4
f  84/38/4 83/39/4 85/42/4 86/41/4 87/43/4 88/4/4
f  89/48/4 90/49/4 91/50/4 92/51/4
f  93/52/4 94/53/4 90/49/4 89/48/4 95/54/4
f  96/55/4 93/52/4 95/54/4 97/56/4 98/57/4
f  99/58/4 98/57/4 97/56/4 100/59/4 87/43/4 86/41/4
f  101/60/4 100/59/4 97/56/4 95/54/4 89/48/4 92/51/4 102/61/4
f  88/4/4 87/43/4 100/59/4 101/60/4 103/3/4
f  104/49/3 105/48/3 106/51/3 107/50/3
f  105/48/3 104/49/3 108/53/3 109/52/3 110/54/3
f  110/54/3 109/52/3 111/55/3 112/57/3 113/56/3
f  113/56/3 112/57/3 114/58/3 43/41/3 46/43/3 115/59/3
f  106/51/3 105/48/3 110/54/3 113/56/3 115/59/3 116/60/3 117/61/3
f  116/60/3 115/59/3 46/43/3 45/4/3 118/3/3
f  21/19/3 47/44/3 50/47/3 118/3/3 45/4/3 40/38/3 37/35/3 34/32/3 33/31/3 30/28/3 27/25/3 24/22/3
f  119/47/4 63/19/4 66/22/4 69/25/4 72/28/4 75/31/4 78/32/4 81/35/4 84/38/4 88/4/4 103/3/4
f  120/46/4 53/8/4 52/9/4 57/13/4 60/16/4 63/19/4 119/47/4
f  53/8/4 120/46/4 121/62/4 122/63/4
f  123/62/3 124/46/3 125/8/3 126/63/3
f  127/64/3 128/65/3 123/62/3 126/63/3
f  129/64/4 130/63/4 131/62/4 132/65/4
f  133/66/4 134/64/4 135/65/4 136/67/4
f  137/68/2 138/69/2 139/63/2 140/8/2 141/46/2 142/62/2
f  132/46/1 135/47/1 134/19/1 129/8/1
f  143/69/1 144/68/1 128/62/1 127/63/1
f  145/66/3 146/67/3 147/65/3 148/64/3
f  149/64/2 138/69/2 137/68/2 150/65/2
f  148/66/1 147/67/1 144/68/1 143/69/1
f  151/70/3 141/67/3 140/66/3 152/71/3
f  153/72/4 133/66/4 136/67/4 154/73/4
f  155/8/2 153/19/2 154/47/2 156/46/2
f  157/72/3 158/73/3 159/70/3 160/71/3
f  158/68/2 157/69/2 161/63/2 155/8/2 156/46/2 162/62/2
f  152/8/1 163/63/1 160/69/1 159/68/1 164/62/1 151/46/1
f  165/74/3 166/75/3 146/67/3 145/66/3
f  167/74/4 149/66/4 150/67/4 168/75/4
f  169/76/3 170/77/3 166/75/3 165/74/3
f  171/76/4 172/74/4 173/75/4 174/77/4
f  170/67/2 169/66/2 175/64/2 176/69/2 177/63/2 178/8/2 179/19/2 171/4/2 174/1/2 180/47/2 181/46/2 182/62/2 183/68/2 184/65/2
f  168/65/1 185/68/1 186/69/1 167/64/1
f  185/68/1 187/62/1 188/63/1 186/69/1
f  188/63/1 187/62/1 189/46/1 190/47/1 191/78/1 192/31/1 193/19/1 194/8/1
f  192/74/3 191/75/3 195/67/3 196/66/3
f  172/74/4 197/66/4 198/67/4 173/75/4
f  196/66/3 195/67/3 199/65/3 200/64/3
f  201/66/4 202/64/4 203/65/4 204/67/4
f  197/4/2 205/6/2 206/5/2 198/1/2
f  207/6/1 208/4/1 200/31/1 199/78/1 209/1/1 210/5/1
f  207/64/3 210/65/3 5/62/3 8/63/3
f  202/64/4 211/63/4 212/62/4 203/65/4
f  213/8/4 214/46/4 131/62/4 130/63/4
f  215/8/3 216/63/3 217/69/3 218/68/3 219/62/3 220/46/3
f  221/69/4 7/63/4 6/62/4 222/68/4
f  217/31/2 221/4/2 222/1/2 218/78/2
f  215/31/1 220/78/1 1/1/1 4/4/1
f  223/71/3 224/70/3 206/67/3 205/66/3
f  225/71/4 201/66/4 204/67/4 226/70/4
f  227/72/3 228/73/3 224/70/3 223/71/3
f  229/72/4 230/71/4 231/70/4 232/73/4
f  228/5/2 227/6/2 233/3/2 234/79/2 235/80/2 236/2/2
f  226/2/1 237/80/1 238/79/1 225/3/1
f  239/75/3 235/73/3 234/72/3 240/74/3
f  241/76/4 229/72/4 232/73/4 242/77/4
f  243/79/2 241/81/2 242/82/2 244/80/2
f  245/76/3 246/77/3 247/75/3 248/74/3
f  245/3/2 243/79/2 244/80/2 246/2/2
f  248/3/1 247/2/1 239/80/1 240/79/1
f  238/71/3 237/70/3 249/62/3 250/63/3
f  230/71/4 122/63/4 121/62/4 231/70/4
f  3/8/4 2/46/4 212/62/4 211/63/4
f  250/63/3 249/62/3 49/46/3 48/45/3 10/8/3

# Mesh '$dummy_node' with 91 faces
g $dummy_node
usemtl mat_2
f  120/83/5 119/84/5 50/85/5 49/86/5
f  55/87/2 51/88/2 12/89/2 14/90/2
f  9/86/6 12/91/6 51/92/6 54/83/6
f  58/93/2 56/87/2 13/90/2 17/94/2
f  14/91/6 13/95/6 56/96/6 55/92/6
f  61/97/2 59/93/2 16/94/2 20/98/2
f  17/95/6 16/99/6 59/100/6 58/96/6
f  64/101/2 62/97/2 19/98/2 23/102/2
f  20/99/6 19/85/6 62/84/6 61/100/6
f  67/103/2 65/101/2 22/102/2 26/104/2
f  23/85/6 22/105/6 65/106/6 64/84/6
f  70/107/2 68/103/2 25/104/2 29/108/2
f  26/105/6 25/109/6 68/110/6 67/106/6
f  73/111/2 71/107/2 28/108/2 32/112/2
f  29/109/6 28/113/6 71/114/6 70/110/6
f  76/115/2 74/111/2 31/112/2 36/116/2
f  32/113/6 31/117/6 74/118/6 73/114/6
f  79/119/2 77/115/2 35/116/2 39/120/2
f  36/117/6 35/121/6 77/122/6 76/118/6
f  82/123/2 80/119/2 38/120/2 42/124/2
f  39/121/6 38/125/6 80/126/6 79/122/6
f  85/127/2 83/123/2 41/124/2 44/128/2
f  42/125/6 41/129/6 83/130/6 82/126/6
f  112/131/6 98/132/6 99/133/6 114/134/6
f  96/135/2 98/136/2 112/137/2 111/138/2
f  43/134/6 86/133/6 85/130/6 44/129/6
f  99/136/2 86/127/2 43/128/2 114/137/2
f  109/139/6 93/140/6 96/132/6 111/131/6
f  94/141/2 93/135/2 109/138/2 108/142/2
f  104/143/6 90/144/6 94/140/6 108/139/6
f  91/145/2 90/141/2 104/142/2 107/146/2
f  106/147/6 92/148/6 91/144/6 107/143/6
f  50/85/7 119/84/7 103/149/7 118/150/7
f  106/147/6 117/150/6 102/149/6 92/148/6
f  219/78/5 6/1/5 1/151/5 220/152/5
f  1/151/5 6/1/5 5/5/5 212/2/5 2/153/5
f  123/62/5 131/46/5 214/154/5 124/155/5
f  156/156/5 151/157/5 164/158/5 162/159/5
f  181/160/5 189/161/5 187/162/5 182/163/5
f  141/164/5 132/8/5 128/63/5 142/165/5
f  132/8/5 131/46/5 123/62/5 128/63/5
f  136/166/5 135/19/5 132/8/5 141/164/5
f  180/167/5 190/168/5 189/161/5 181/160/5
f  156/156/5 154/169/5 136/166/5 141/164/5 151/157/5
f  218/170/5 222/171/5 6/1/5 219/78/5
f  199/31/5 195/29/5 198/43/5 209/4/5
f  195/29/5 191/172/5 173/173/5 198/43/5
f  180/167/5 174/174/5 173/173/5 191/172/5 190/168/5
f  210/6/5 203/3/5 212/2/5 5/5/5
f  198/43/5 206/59/5 204/60/5 203/3/5 210/6/5 209/4/5
f  228/175/5 236/176/5 226/177/5 204/60/5 206/59/5 224/178/5
f  226/177/5 236/176/5 235/179/5 237/180/5
f  247/181/5 246/182/5 244/183/5 239/184/5
f  232/185/5 235/179/5 239/184/5 244/183/5 242/186/5
f  121/82/5 249/80/5 237/180/5 235/179/5 232/185/5 231/187/5
f  249/80/5 121/82/5 120/83/5 49/86/5
f  144/69/5 137/188/5 142/165/5 128/63/5
f  159/189/5 158/190/5 162/159/5 164/158/5
f  185/191/5 183/192/5 182/163/5 187/162/5
f  144/69/5 147/66/5 146/193/5 150/194/5 137/188/5
f  170/195/5 184/196/5 168/197/5 150/194/5 146/193/5 166/198/5
f  168/197/5 184/196/5 183/192/5 185/191/5
f  7/1/6 216/78/6 215/152/6 4/151/6
f  3/153/6 211/2/6 8/5/6 7/1/6 4/151/6
f  130/46/6 126/62/6 125/155/6 213/154/6
f  161/159/6 163/158/6 152/157/6 155/156/6
f  177/163/6 188/162/6 194/161/6 178/160/6
f  139/165/6 127/63/6 129/8/6 140/164/6
f  127/63/6 126/62/6 130/46/6 129/8/6
f  140/164/6 129/8/6 134/19/6 133/166/6
f  178/160/6 194/161/6 193/168/6 179/167/6
f  153/169/6 155/156/6 152/157/6 140/164/6 133/166/6
f  217/170/6 216/78/6 7/1/6 221/171/6
f  196/29/6 200/31/6 208/4/6 197/43/6
f  192/172/6 196/29/6 197/43/6 172/173/6
f  171/174/6 179/167/6 193/168/6 192/172/6 172/173/6
f  207/6/6 8/5/6 211/2/6 202/3/6
f  201/60/6 205/59/6 197/43/6 208/4/6 207/6/6 202/3/6
f  233/176/6 227/175/6 223/178/6 205/59/6 201/60/6 225/177/6
f  233/176/6 225/177/6 238/180/6 234/179/6
f  245/182/6 248/181/6 240/184/6 243/183/6
f  241/186/6 243/183/6 240/184/6 234/179/6 229/185/6
f  229/185/6 234/179/6 238/180/6 250/80/6 122/82/6 230/187/6
f  250/80/6 10/86/6 53/83/6 122/82/6
f  138/188/6 143/69/6 127/63/6 139/165/6
f  157/190/6 160/189/6 163/158/6 161/159/6
f  176/192/6 186/191/6 188/162/6 177/163/6
f  138/188/6 149/194/6 145/193/6 148/66/6 143/69/6
f  175/196/6 169/195/6 165/198/6 145/193/6 149/194/6 167/197/6
f  175/196/6 167/197/6 186/191/6 176/192/6
f  9/89/2 54/88/2 53/81/2 10/79/2

